<?xml version="1.0" encoding="utf-8"?>
<!-- Generator: Adobe Illustrator 22.1.0, SVG Export Plug-In . SVG Version: 6.00 Build 0)  -->
<svg xmlns="http://www.w3.org/2000/svg" xmlns:xlink="http://www.w3.org/1999/xlink" version="1.1" id="Layer_1" x="0px" y="0px" viewBox="0 0 868.9 702.3" style="enable-background:new 0 0 868.9 702.3;" xml:space="preserve" preserveAspectRatio="xMidYMid meet" width="179.28774928774928" height="145.0">
<style type="text/css">
	.st0{fill:#FFFFFF;}
	.st1{fill:#EE1C25;}
	.st2{fill:#005BAA;}
</style>
<g>
	<path class="st0" d="M868.2,147.8c-0.2-6.4-0.5-13-0.6-19.5l-2.1-92.9l-18.7,91c-1.5,7.4-3,15.1-4.5,22.4
		c-3.2,16.3-6.5,33.2-10.5,49.6c-13.6,55.1-33.5,106.2-59.2,152.3H759c-0.8,0-1.5,0-2.2,0c-1.5,0-3-0.1-4.6,0.1
		c-12,1.1-22.6,0.2-32.4-2.9c-6.7-2.1-7.9-4.5-8-9.2c-0.1-3.3,0.2-6.8,0.8-10.4c4-23.1,11.1-44.8,20.1-70.7c0.8-2.5,1.7-4.9,2.6-7.6
		l8-22.9l-22.6,6.2c-7.3,2-14.6,4.1-21.9,6.1c-16.7,4.7-33.9,9.5-50.9,13.7c-1.1,0.3-2.1,0.5-3.1,0.7c-8.5,1.6-12,1.1-18.2-11
		c-1.9-3.7-3.5-7.8-5.1-12.7c-1.2-3.8-2.2-7.8-3.3-12.1c-0.5-2-1-4.1-1.6-6.2l-3.6-14l-13.8,8.9c-1.1,0.7-2,1.3-2.9,1.9
		c-5.5,3.7-10.9,7.3-16.4,11c-12.2,8.2-24.8,16.8-37.4,24.7c-11.4,7.1-23.1,13.6-34.5,19.6c0-0.4,0.1-0.8,0.1-1.2
		c0.5-6,1.1-11.6,2.2-17c7.2-35.6,14.9-71.8,22.3-106.8l0.9-4.4c1.4-6.7,3-13.4,4.7-20.6c0.8-3.4,1.6-6.9,2.5-10.5l6.7-28.8
		l-23.4,18.1c-1.4,1.1-2.6,2-3.8,3c-2.3,1.8-4.4,3.4-6.5,5c-15,11.3-30.6,23.1-47.9,30.7c-2.9,1.3-4.2,1.5-4.6,1.6
		c-0.4-0.2-1.4-1-3.5-3.4l-0.6-0.7c-1.8-2.1-3.6-4-4.6-5.8c-2.1-3.7-4.2-7.4-6.3-11.1c-9.4-16.5-19.1-33.6-28.1-50.5
		c-4.8-9.1-9.1-18.4-13.6-28.3c-2-4.4-4.1-9-6.3-13.6L389.3,0l-10.6,20.9c-0.5,1.1-1,2-1.4,2.9c-3.5,7-6.9,14.2-10.3,21.2
		c-7.9,16.4-16.1,33.4-24.7,49.7c-5.7,10.9-12.9,22-22.6,35.1c-1.6,2.2-2.6,3.1-3,3.5c-0.6-0.1-2-0.6-5-2.1
		c-9.9-5.1-19.7-10.8-29.2-17c-6.4-4.2-12.6-8.9-19.2-13.9c-3.1-2.3-6.2-4.7-9.5-7.1l-22.3-16.4l6.9,31.7c0.6,3,1.2,5.6,1.8,8.3
		c2.4,11.1,4.7,22.3,7.1,33.4c6.9,32.5,14.1,66.1,20.8,99.2c1,4.9,1.5,10,1.8,15.2c-1.7-0.8-3.3-1.7-4.8-2.6
		c-22.5-14-45.2-28.5-67.2-42.6l-7.8-5c-2.8-1.8-5.6-3.7-8.5-5.8c-1.5-1-3-2-4.5-3.1l-12.7-8.7l-3.4,15c-0.2,0.8-0.3,1.6-0.5,2.3
		c-0.2,0.8-0.3,1.6-0.4,1.9c-1,3-1.8,6-2.7,8.9c-1.9,6.5-3.7,12.7-6.3,18.2c-5.2,11.1-8.7,12.8-20.8,10c-15.4-3.6-31.1-7.9-46.2-12
		c-5.1-1.4-10.1-2.8-15.2-4.1c-2.9-0.8-5.9-1.8-9.1-2.9c-1.7-0.6-3.4-1.1-5.2-1.7l-18.4-5.9l5,18.6c0.2,0.8,0.4,1.4,0.5,2
		c0.3,1.3,0.6,2.5,1.1,3.8c1.1,3.1,2.1,6.1,3.2,9.2c1.9,5.4,3.9,11,5.7,16.5c6.6,20.6,12.3,39.3,14.6,58.8c0.8,7.1-1.1,9.2-5.8,11.3
		c-10.9,4.7-23,4.6-34.6,4.1L0,349.7l10.1,16.8c0.6,1,1.1,1.8,1.6,2.7c1,1.8,2,3.5,3.2,5.2c3.3,4.6,6.7,9.4,9.9,14
		c8.1,11.6,16.5,23.5,25.4,34.9c20.3,26.1,43.1,49.6,63.4,65.1c0.1,18.7,0.2,37.6,0.3,56c0.1,16.8,0.2,34.1,0.3,51.1
		c0,5.9,0.9,14.6,8.4,21.6c2.3,2.1,4.5,4.3,6.8,6.6c4.4,4.4,9,9,14.2,13.1c20.7,16.3,45.6,29,78.3,39.9
		c38.5,12.9,81.7,20.8,132.1,24.1c21.5,1.4,43.3,1.4,64.4,1.4c3.2,0,6.4,0,9.6,0c0.3,0,0.5,0,0.8,0c32.2,0,64.8-3.5,99.7-10.5
		c43.1-8.8,82.9-23.1,118.3-42.5c63.9-35.1,115.1-87.5,152.2-155.6c23.7-43.5,41.1-91.2,51.7-141.8c5.5-26.2,9.9-53.6,13.2-81.4
		c2.6-22.6,4.2-46.9,5-76.5C869.2,178.4,868.7,162.8,868.2,147.8z M757.5,490c-0.1,0.1-0.3,0.2-0.4,0.3l2.1-2.7
		C758.9,488.5,758.3,489.3,757.5,490z M762.2,467.2h-0.1c0-0.4,0-0.8,0.1-1.2c0,0,0-0.1,0-0.1c0.7-0.6,1.3-1.1,2-1.6L762.2,467.2z
		 M776.1,453.7c-1.4-0.9-2.7-2.9-2.7-4.6l3,0.1L776.1,453.7z M776.4,449.1l-3-0.1c0-1.7,1.6-3.5,3.3-4.2L776.4,449.1z M778.2,444.5
		c0.1,0,0.2,0,0.3,0c1.2,0,2.5,0.7,3.4,1.8c0.4,0.5,0.8,1.1,1,1.7L778.2,444.5z"/>
	<path class="st1" d="M753.1,361.2c-12.4,1.1-24.6,0.4-36.5-3.3c-10.4-3.2-15.1-9.2-15.4-19c-0.1-4.1,0.3-8.3,1-12.4
		c4.3-24.8,12.3-48.6,20.5-72.4c1.3-3.6,2.5-7.3,4-11.6c-1.8,0.5-2.5,0.7-3.3,0.9c-24.3,6.7-48.6,13.8-73,19.9
		c-1.3,0.3-2.5,0.6-3.7,0.8c-14.7,2.8-22-1.9-29.5-16.6c-2.3-4.6-4.2-9.4-5.7-14.3c-1.9-5.9-3.2-12.1-5-18.8c-1.7,1.1-3.1,2-4.4,2.8
		c-18,12-35.8,24.4-54.1,35.9c-13.9,8.7-28.5,16.5-43,24.2c-5.9,3.1-7.7,1.5-8.2-5.1c-0.1-0.8-0.1-1.7,0-2.5
		c1-8.8,1.4-17.6,3.1-26.2c7.5-37.1,15.4-74.2,23.3-111.2c2.1-10.1,4.7-20.1,7.3-31.2c-4.1,3.2-7.2,5.6-10.4,8
		c-15.8,11.9-31.7,23.9-50,31.9c-9.5,4.2-13.4,3.3-20.2-4.5c-2.3-2.6-4.7-5.3-6.4-8.3c-11.6-20.5-23.4-41-34.5-61.9
		c-7.2-13.6-13.2-27.8-20.1-42.4c-0.9,1.9-1.6,3.1-2.2,4.4c-11.6,23.8-22.8,47.8-35.1,71.1c-6.7,12.7-14.9,24.8-23.5,36.4
		c-6.7,9.1-11.1,9.6-21.2,4.5c-10.3-5.3-20.4-11.2-30.1-17.6c-9.7-6.4-18.8-13.6-29.2-21.3c1.1,5,2,9,2.8,13
		c9.4,44.2,18.9,88.4,27.9,132.7c1.7,8.4,2,17.2,2.4,25.8c0.2,5.2-1.8,6.6-6.4,4.8c-5.1-2-10.3-4.1-14.9-7
		c-25.1-15.7-50.1-31.6-75.1-47.6c-4.4-2.8-8.6-5.8-13.3-9.1c-0.5,2.2-0.7,3.7-1.2,5.1c-3.1,9.5-5.3,19.3-9.5,28.3
		c-7.3,15.6-15.8,19.7-32.7,15.8c-20.7-4.9-41.2-10.7-61.7-16.2c-4.7-1.3-9.4-3-14.8-4.7c0.6,2.3,0.9,3.7,1.4,5.1
		c3,8.6,6.1,17.2,8.9,25.9c6.4,19.9,12.6,39.9,15,60.9c1.2,10.7-2.3,17.9-12.1,22.1c-12.5,5.4-25.9,5.5-39.2,4.9
		c-1.7-0.1-3.4-0.2-6.2-0.3c1.8,3,2.9,5.2,4.3,7.2c11.6,16.3,22.8,32.9,35,48.6c17.9,23.1,42.2,49.5,66.1,66.7
		c3,2.2,0.4-0.2,0.6,3.1l1.5,0.9l-2.7-31.8c-3.5-8.7-5.7-17.9-6.3-27.8c-1.3-23.9,7.9-44.2,23.1-62c17.8-20.8,40.3-35.1,64.9-46.3
		c50.2-22.9,103.4-31.9,158-33.7c33.5-1.1,66.9,1.3,100,6.9c45.6,7.7,89.3,20.8,129.6,44c20.3,11.7,38.9,25.5,53.4,43.6
		c3.5,4.4,6.8,9,9.8,13.9c11.7,19,16.5,39.5,12.1,61.6c-1.3,6.6-3.8,13-6,20.2c39.3-32.6,68.6-72.5,96.2-114.8
		C756.4,361.2,754.8,361.1,753.1,361.2z"/>
	<path class="st2" d="M629.1,494.6c2.2-13.1,4.4-26.1,6.6-39.8c-12,0-23.6,0-36.2,0c4.9-28.7,9.7-56.6,14.6-85.4
		c17.9,17.2,31.8,35.7,35.4,60.3c3.5,24.1-5,44.3-19.3,62.8C629.8,493.1,629.5,493.9,629.1,494.6
		C629.1,494.6,629.1,494.6,629.1,494.6z M153.8,473.7c6.9-39.3,13.7-78.6,20.6-118c-38.9,29.1-52.9,77-21.4,119.7
		C153.4,474.5,153.8,474.1,153.8,473.7z M217.5,449.5c10.8-15.4,13.6-32.6,8.7-50.7c-1.5-5.8-6.3-9-11.4-8.5
		c-1.4,0.1-3.4,1.8-3.7,3.1c-1.2,5-1.8,10.1-2.6,15.2c-2.7,15.8-5.4,31.7-8.2,47.8C209,456.9,213,455.9,217.5,449.5z M622.7,494.2
		c2.1,0,4.3,0.3,6.4,0.5c-4.7,4.4-9.3,8.9-14.2,13.1c-23.7,20.5-51.6,33.1-81.1,42.6c-25.8,8.4-52.4,13.7-79.3,15.9
		c-22.5,1.8-45.3,3-67.8,2c-49.7-2.1-98.3-10.7-144.7-29.7c-24.1-9.9-46.8-22.3-66.8-39.3c-1.6-1.3-3.1-2.8-5.7-5.2
		c13.3,0,25.1,0.4,36.8-0.1c18.6-0.8,34.7-7.7,46.8-22.2c10.2-12.3,15.5-27.1,17.7-42.8c1.8-13.3,2.4-26.8-0.7-40.1
		c-4.4-19.2-18.4-33.2-38-35c-16-1.5-32.2-0.9-48.4-1.3c-1.6,0-3.2,0-4.8,0c-0.2-0.5-0.4-1-0.7-1.4c9.4-5.7,18.6-11.9,28.3-17
		c28.7-15.1,59.5-24.2,91.4-30.1c32.5-6,65.4-8.2,98.3-6.9c55.8,2.2,110.2,12.2,161.3,35.9c11.7,5.4,22.8,12.1,34.2,18.2
		c-0.2,0.5-0.3,0.9-0.5,1.4c-5.6,0-11.1,0-17.3,0c-8.1,47.1-16.2,93.9-24.4,141.5c2.2,0,4,0,5.8,0
		C577.7,494.1,600.2,494.1,622.7,494.2z M406.8,493.9c8.1-46.9,16.2-93.7,24.3-140.7c-1.1-0.2-1.7-0.5-2.4-0.5
		c-16.8,0-33.7,0-50.5-0.1c-3.3,0-3.7,2.1-4.5,4.2c-8,20.9-16,41.9-24.1,62.8c-0.7,1.9-1.7,3.7-2.5,5.6c-1.2-7.3-1.7-14.3-2.1-21.3
		c-0.8-15.4-1.6-30.9-2.3-46.3c-0.2-3.7-1.6-5.1-5.5-5c-13.7,0.2-27.3,0.1-41,0.1c-1.5,0-2.9,0.2-4.5,0.3
		c-8.1,47-16.2,93.7-24.3,140.8c13,0,25.5,0,38.6,0c4-26.3,8-52.6,11.9-78.8c0.5,0,1,0,1.5,0.1c0,14.3-0.1,28.6,0,42.9
		c0.1,10.6,0.7,21.3,1,31.9c0.1,3.1,1.1,4.5,4.4,4.4c6.7-0.2,13.3-0.2,20,0c2.7,0.1,4.1-0.7,5.1-3.5c2.7-7.5,5.8-14.8,8.8-22.2
		c6.7-16.8,13.3-33.6,20-50.4c0.2,0.1,0.4,0.1,0.5,0.2c-4.8,25.1-9.7,50.2-14.6,75.6C379.1,493.9,392.7,493.9,406.8,493.9z
		 M545.7,400.3c2.7-15.7,5.3-31.3,8-47.4c-14.5,0-28.5,0-42.7,0c-0.5,2.7-1,5.1-1.5,7.6c-2.1,12.3-4,24.6-6.3,36.8
		c-0.3,1.6-2.2,4-3.5,4.1c-5.4,0.5-10.9,0.2-16.9,0.2c2.8-16.4,5.6-32.4,8.4-48.6c-14.4,0-28.3,0-42.4,0
		c-8.1,47-16.1,93.7-24.3,140.8c1.9,0.1,3.4,0.3,4.9,0.3c11,0,22-0.2,33,0.1c4,0.1,5.1-1.6,5.7-5c2.5-15.4,5.2-30.7,8-46.1
		c0.2-1.2,1.8-2.9,2.8-3c5.4-0.3,10.9-0.1,17.1-0.1c-3.1,18.3-6.1,35.9-9.2,54.1c14,0,27.4,0.1,40.9-0.1c0.8,0,2.1-1.9,2.3-3
		c1.2-5.7,2-11.4,3-17.1C537.2,449.3,541.4,424.8,545.7,400.3z M629.1,494.6C629.1,494.6,629.1,494.6,629.1,494.6
		C629.1,494.6,629.1,494.6,629.1,494.6L629.1,494.6z"/>
	<g>
		<g>
			<path class="st2" d="M857.1,128.6c-4.9,23.7-9.1,48.3-15,72.4c-14.6,59.3-36.7,115.8-68.1,168.4c-21.2,35.5-46.3,67.8-76,96.7
				c-34,32.9-73.2,58.3-115.6,78.4c-46.7,22.2-96.8,31.1-148.1,33.4c-35.7,1.6-71.4,0.3-106.9-5.7c-36.7-6.2-72.4-15.6-106.4-31.2
				c-30.7-14.1-58.9-31.6-80.6-58.2c-6.9-8.4-12.4-17.4-16.3-27v31.1h0c0,0.4,0,0.8,0,1.2c0.1,35.8,0.5,71.6,0.6,107.4
				c0,5.4,0.9,10.1,5,13.9c6.8,6.3,13,13.4,20.3,19.1c22.5,17.7,48.2,29.2,75.2,38.2c42,14.1,85.5,20.7,129.5,23.6
				c24.4,1.6,48.9,1.4,73.3,1.4c33.2,0.1,66-3.7,98.4-10.3c40.4-8.2,79.1-21.5,115.3-41.4c64.6-35.5,113-87,148-151.4
				c23.8-43.7,40.4-90.3,50.6-138.9c5.6-26.6,9.9-53.5,13-80.5c2.9-25.1,4.3-50.4,4.9-75.6C858.9,171.8,857.5,149.8,857.1,128.6z
				 M188,617.1c-1.5,0.3-3,0.5-4.5,0.8v0c0.2-0.6,0.4-1.3,0.6-2c0.6-2,1.2-4,2.2-5.8c4.4-7.7,9.1-15.3,14.2-23.9
				c-12.3,6-23.5,11.7-34.9,17.1c-2.2,1-4.9,1-7.3,1.5c0.8-2.3,1.3-4.9,2.6-6.9c8.1-12.1,16.5-24.1,24.1-35.1
				c-0.8-2.7-1.2-4.4-1.7-6c1.7,0.2,3.6,0.1,5.1,0.8c4.8,2.3,9.4,4.9,14.2,8.8c-1.4,0.4-2.8,0.7-4.2,1.1c-1.5,0.3-3.6,0.1-4.3,1
				c-6.5,8.3-12.8,16.8-18.4,26.1c9.8-5.4,19.7-10.7,29.5-16.3c2.1-1.2,5.4-3.2,1.9-6.6c-0.3-0.3-0.1-1.9,0.2-2.1
				c0.9-0.5,2.2-0.9,3-0.5c4.6,2.2,9.1,4.6,14.6,7.4c-1.7,1.1-2.6,1.9-3.6,2.4c-1.8,1-4.4,1.4-5.5,2.9c-5.9,8.2-11.5,16.7-17.2,25
				c0.3,0.4,0.6,0.8,1,1.2c9.2-6.2,18.5-12.3,27.7-18.5c2.1-1.5,5.5-3.1,1.8-6.5c-0.3-0.3,0.1-2,0.7-2.5c0.5-0.4,1.8-0.4,2.5,0
				c4.4,2.2,8.8,4.5,14.3,7.4c-1.9,1-3.5,2.5-4.2,2.2c-3.6-1.8-6,0.4-8.7,2c-13.8,7.9-27.6,16-41.6,23.8
				C190.9,616.4,189.5,616.8,188,617.1z M241.4,638c-2.3,0.8-5.5,0-7.9-1c-1.1-0.5-1.9-3.5-1.5-5.1c0.3-1.1,2-1.9,3.4-2.7
				c0.2-0.1,0.4-0.2,0.6-0.4h0c0.5,0.7,1,1.4,1.5,2.2s1,1.4,1.5,2.2c0.3,0.4,0.4,0.8,0.8,1.8c6.1-6.1,10.6-12.6,13.1-20.5
				c1-3.1-1.3-4.1-3.7-2.7c-5.3,3.2-10.5,6.8-15.5,10.5c-2.1,1.6-3.7,3.9-5.1,6.1c-2.7,4.4-6,4.6-10.9,1.3
				c10.7-14.2,21.2-28,31.9-42.1c-1.8-1-3.2-1.7-4.6-2.5c1.5-3.7,7.8-3,16,1.9c-5.9,7.4-11.8,14.7-18.1,22.5
				c3.5-1.2,6.4-2.6,9.4-3.3c6.7-1.5,11.3,2.9,9.3,9.3C258.4,625.9,252.1,634.2,241.4,638z M289.7,625.9c-4.1,2.4-9.2,3-13.8,4.5
				c-1.6,0.5-4.1,1.1-4.5,2.3c-0.7,1.9-0.8,5.1,0.3,6.4c1.1,1.2,4.1,1.1,6.3,1c2.1-0.1,4.3-0.8,6.4-1.2c-1.9,1.7-3.6,3.7-5.7,5.2
				c-1.3,0.9-3.1,1.2-4.7,1.5c-9.2,1.8-14.6-4.1-11.8-13.1c3.1-10.1,13.9-18.9,24.1-20c2.4,1.7,6.3,3,6.7,5.1
				C293.4,620.2,291.8,624.7,289.7,625.9z M314.1,628.4c-4,5-7.9,10.2-11.2,15.7c-3.6,6.1-3.2,6.3-10.8,4c2.1-4.4,4.1-8.6,6.1-13
				c1.9-4.1,3.8-8.3,5.6-12.4c-0.4-0.3-0.7-0.6-1.1-0.8c-1.8,1.1-3.5,2.2-5.3,3.2c-0.6,0.3-1.7,0.2-2.1-0.2c-0.4-0.4-0.3-1.5,0-2.1
				c1.8-3.5,9.7-6.9,13.6-5.9c5.4,1.4,2.5,5.1,2,8.2c2.8-2,5.1-4.3,7.9-5.4c1.7-0.7,4.8-0.3,6.2,0.9c1,0.9,1,4.6,0,5.6
				c-1.1,1.2-3.9,0.6-5.9,1C317.4,627.4,315,627.3,314.1,628.4z M350.5,634.2c-3.9,2.5-8.7,3.7-13,5.6c-1.6,0.7-3.9,1.6-4.2,2.9
				c-0.5,1.8-0.2,4.9,1,5.8c1.5,1.1,4.2,0.6,6.4,0.4c1-0.1,1.9-1.3,3-1.7c0.9-0.3,2-0.2,3-0.2c-0.2,1-0.1,2.6-0.7,2.9
				c-3.8,2.3-7.8,4.4-11.8,6.5c-0.2-0.4-0.4-0.8-0.7-1.2c-7.8,0-11.1-4.3-9.2-12c2.6-10.6,8.8-18.1,19.6-21.1c3.5-1,7.2-1,9.4,2.5
				C355.5,628.4,353.6,632.2,350.5,634.2z M406.6,634.3c-1,9-4.7,17-11.7,23c-1.7,1.4-4,2.3-6.2,2.9c-3,0.7-6,0.2-6.5-3.5
				c-0.2-1.6,1.5-4.8,2-4.8c2.2,0.3,4.2,1.5,7.2,2.7c3.7-5.7,5.8-13.3,6.7-21.1c0.4-3.6-2.8-3.8-4.7-1.8c-4.4,4.5-8.4,9.3-12.3,14.2
				c-1.5,1.9-2.4,4.4-3.1,6.8c-1.5,4.9-4.5,6.1-10,3.8c2.7-6.6,5.3-13,8-19.4c3.3-8,6.8-15.9,10.2-23.9c1.4-3.4,3-6.9-3.3-6.3
				c1.1-4.3,3.6-4.7,16.3-2.6c-4,8.9-7.9,17.5-12,26.7c2.3-1.8,4.1-4,6.4-4.6c3.3-1,7.5-2,10.2-0.7
				C405.7,626.6,407,631.4,406.6,634.3z M664.6,516.9c0.3-3.2,2.4-4.9,5.4-4.3c1.8,0.4,3.3,2.4,5,3.6c-1.2,4.5-3.1,6.1-6.5,5.8
				C665.2,521.8,664.3,519.6,664.6,516.9z M431.1,654.8c-4.1,3.8-9,5.6-14.6,3.3c-5.4-2.2-6.2-6.8-6-11.5
				c-0.1-11,6.1-19.9,15.1-22.4c7.1-1.9,13.3,2.6,13.3,9.8C439,641.9,437,649.2,431.1,654.8z M465.4,630c-2.3,0.1-4.7-0.7-8.6-1.5
				c-3.2,2.8-6.4,16.1-3.6,21c0.5,0.9,2.6,1.5,3.7,1.2c1.5-0.4,2.7-1.9,4.1-2.6c0.7-0.4,1.7-0.1,2.6-0.1c0,0.8,0.1,1.6-0.2,2.3
				c-2,4.5-9.8,8-14.5,6.6c-3.9-1.1-6.1-5.1-5.4-11.1c0.8-7.4,3.1-14.3,8.6-19.7c1.7-1.7,4-3,6.2-3.9c3.3-1.4,6.5-0.7,8.1,2.6
				C467.2,626.2,465.9,629.9,465.4,630z M502.4,648.5c-3.3,4.2-12.2,6-15.7-0.6c-1.5-2.7-3.6-5.1-6.2-8.9c-1,4.1-1.8,7-2.5,9.9
				c-1.4,6.1-2.6,6.9-9.3,5.3c3.8-16.7,7.6-33.5,11.5-50.8c-2.5-0.4-3.9-0.6-5.3-0.8c0.5-3.8,7.8-6,15.3-4.6
				c-2.1,8.3-4.2,16.6-6.4,25.1c3.2-2,6-4.3,9.1-5.4c1.8-0.7,5.2-0.4,6.2,0.8c1.3,1.5,1.8,5.1,0.9,6.7c-2.8,4.5-6.6,8.5-10.4,13.2
				c1.4,1.6,3.4,3.9,5.4,6.2c1.5,1.8,3.1,3,5.5,1c0.6-0.5,1.9-0.1,3-0.1C503.1,646.5,503,647.7,502.4,648.5z M531.1,617.9
				c-0.8,6.9-6.3,9.6-11.3,13c-1.5,1-3.5,2.9-3.5,4.2c0.1,2,1.5,4.9,3.1,5.5c1.5,0.6,4.2-1,6-2.1c1.7-1,2.9-2.8,4.3-4.3
				c0.4,0.4,0.8,0.8,1.2,1.2c-1.1,6.9-8.4,13.1-15.1,12.5c-4.7-0.4-6.8-3.6-7.8-7.8c-2.2-8.8,2.8-21.9,10.3-27
				c1.4-0.9,2.9-1.8,4.4-2.3C528.5,609.1,531.8,611.9,531.1,617.9z M564.4,610.4c-1,16.7-4.2,33-12.4,47.8c-1.6,2.9-4.5,5.3-7.3,7.1
				c-1.3,0.9-4.4,0.4-5.8-0.6c-1.1-0.8-1.5-4.1-0.7-5.2c0.8-1.2,3.4-1.3,5.3-1.8c1.5-0.4,4-0.4,4.4-1.3c1.9-4.6,5.5-10.1,4.4-14.2
				c-2.6-9.6-7.5-18.6-11.4-27.9c-0.6,0.1-1.1,0.2-1.7,0.3c-0.4,1.4-0.6,2.9-1.2,4.2c-0.3,0.6-0.9,1.2-1.4,1.7
				c-0.2,0.2-0.4,0.3-0.5,0.5v0l0,0c-0.1-0.1-0.1-0.2-0.2-0.3c-0.5-0.8-1.3-1.6-1.2-2.3c0.5-2.8,0.8-5.8,2.2-8c1.3-2,4-4.2,6.1-4.2
				c2,0,4.7,2.5,5.7,4.5c3.1,6.6,5.5,13.5,8.7,21.4c1.1-9.3,3.6-17.3-1.8-25.1c-0.8-1.1,0.9-3.9,1.4-5.9c2.1,0.7,5,0.8,6.1,2.2
				C564.3,605,564.6,608,564.4,610.4z M600.9,620.4c-7.2,3.6-11.5,1.6-12.2-6.7c-0.9-10.1-1.4-20.2-2.1-30.3c-0.3-4-0.6-7.9-1-12.3
				c-1.7,0.5-3.1,0.9-6.1,1.8c1.2-2.4,1.8-3.7,2.5-5c0.1-0.1,0.3-0.2,0.4-0.2c3.5-1.4,6.9-2.7,10.4-4.1c0.1,0.8,0.2,1.7,0.3,2.5
				c0.3,2.5,0.7,5.1,0.8,7.6c0.2,5.3,0.1,10.6,0.1,17.3c3.1-4,4.9-7.1,7.4-9.3c4.2-3.6,8.6-2.3,10.9,2.6
				C616.5,593.2,613.4,614.1,600.9,620.4z M631,602.7c-2.6-0.3-5.9-2.4-7-4.6c-2.2-4.5-3.2-9.6-4.6-14.4c0.8-7.3,2.8-13.7,8.6-17.9
				c1.9-1.4,5.6-2.2,7.6-1.3c1.7,0.7,3.1,4.3,3.2,6.6c0.2,5.6-3.1,9.9-6.9,13.9c-1.3,1.4-2.5,4-2.1,5.6c0.4,1.7,3.1,4.1,4.3,3.9
				c2-0.3,3.8-2.5,5.4-4.2c0.7-0.7,0.6-2.3,1.3-3.2c0.4-0.6,1.4-1.2,2.2-1.2c0.4,0,1.1,1.1,1.2,1.8C645.2,593.6,637,603.5,631,602.7
				z M687.6,589.2c-2.4,10.1-15.1,19.1-25.3,17.8c-4.6-0.6-7.4-4.3-6.2-8.9c0.9-3.5,2.4-6.9,3.8-10.7c-6.7-1.8-4.1-6.1-2.9-9.9
				c-8.4-1.8-12.2-6-12.5-13.6c-0.3-7.6,4.2-13.4,11.8-15.8c1.6-0.5,2.9-1.8,4.4-2.7c2.1-1.2,4.2-2.5,6.5-3.3
				c0.4-0.1,2.5,2.8,2.3,3.1c-1.5,1.9-3.4,3.4-5.5,5.4c0.1,0.2,0.7,1.1,1.3,2c4.6,6.8,4,13.8-1.5,20.6c-1.2,1.5-1.6,3.7-2.3,5.5
				c1.9,0.3,3.8,0.9,5.7,0.9c4.1-0.1,8.3-0.9,12.4-0.8C685.6,578.8,688.9,583.4,687.6,589.2z M690.5,562.4c-1.3,0.4-4.1-1.1-4.8-2.4
				c-2.7-5.8-4.9-11.9-7.3-17.9c-0.4-1-0.9-2.1-2.4-3.2c-0.3,1.8-0.5,3.6-0.9,5.3c-0.1,0.5-0.4,0.9-0.7,1.3
				c-0.3,0.4-0.7,0.8-0.9,1.3l0,0v0c-0.2-0.2-0.4-0.5-0.6-0.7c-0.6-0.7-1.4-1.5-1.2-2.1c0.9-4.5,1.5-9.2,3.4-13.3
				c2-4.3,5.5-4,7.5,0.5c2.4,5.3,4.3,10.8,6.4,16.2c0.8,1.9,1.6,3.8,3,7c0.9-4.1,1.5-6.7,2.2-9.7c1.1,0.6,1.9,0.7,2.2,1.1
				C698.4,549.6,694.7,561.1,690.5,562.4z M728.6,518.8c-0.9,3.7-1.7,7.5-3.5,10.7c-2.1,3.9-4.9,3.6-7-0.3
				c-3.3-6.3-6.4-12.8-9.6-19.2c-0.3-0.5-0.8-1-2-2.4c-0.7,2.9-1.8,4.9-1.5,6.7c1.5,7.4,2.7,15,5.3,22.1c1.8,4.9,1.5,7.8-3.9,10.3
				c-4.2-8.5-8.3-16.8-12.4-25c-0.4,0.1-0.8,0.2-1.1,0.3c-0.3,1.6-0.4,3.2-0.9,4.7c-0.3,0.9-1.2,1.5-1.9,2.2
				c-0.6-0.8-1.7-1.8-1.6-2.5c0.6-3.7,0.9-7.7,2.4-11c2.3-5,5.7-4.8,8.6,0c0.4,0.7,0.8,1.4,1.2,2c0.3-3.9,0.1-7.8,1.2-11.2
				c0.9-2.6,3.2-5.6,5.6-6.5c3.5-1.4,5.6,1.9,7.1,4.8c2.8,5.8,5.6,11.6,9.3,17.3c0.2-1.2,0.1-2.5,0.5-3.5c0.4-1,1.5-1.7,2.2-2.6
				C727.5,516.8,728.8,518,728.6,518.8z M738.2,514.7c-1.6,0.7-4,0.4-5.9-0.2c-0.7-0.2-1.4-3.4-1-3.7c1.5-1.2,3.4-1.6,5.2-2.4
				c1.2-0.5,3.3-0.8,3.5-1.6c0.3-1.1-0.4-3.4-1.3-3.7c-3.3-1.3-6.8-2.4-10.3-2.9c-4.6-0.7-7.9-2.8-9.4-7.1c-1.7-4.7-0.2-8.9,3-12.4
				c1-1.1,2.8-2.2,4.3-2.2c1.4-0.1,3.2,0.8,4.2,1.9c0.6,0.7,0.7,3,0,3.6c-1,1-2.7,1.3-4.2,1.6c-0.9,0.2-1.8-0.2-2.8-0.3
				c-0.4,0.5-0.8,1-1.2,1.5c1.5,1.3,2.9,3.1,4.7,3.9c1.9,0.8,4.2,0.8,6.3,1c5.8,0.5,10.4,4,11.5,8.7
				C746.2,505.7,743.3,512.4,738.2,514.7z M760.9,487.5c-2.2,1.5-4.2,3.9-6.5,4.3c-3.4,0.6-5.7-2.1-5.6-5.4c0.1-3.5,2.6-6.2,6.2-5.5
				c2.2,0.4,4,2.8,6,4.3C760.9,486,760.9,486.8,760.9,487.5z M772.5,468.2c-0.5,2.2-3.4,5.1-5.5,5.5c-1.9,0.3-4.2-2.6-6.4-4.1
				c0-0.8,0-1.6,0-2.4c2.1-1.5,4.1-3.9,6.5-4.3C770.4,462.3,773.2,465,772.5,468.2z M778.3,455c-3.4,0-6-2.5-5.5-5.7
				c0.4-2.3,2.9-4.3,4-5.8c5.1,0.4,7.2,2.4,7.1,5.8C783.9,452.7,781.8,455,778.3,455z"/>
			<path class="st2" d="M676.9,587c-1.5-0.2-3,0-4.5,0c0,0,0,0,0,0c-0.7,0-1.3,0-2,0c-3.1,0-6.5,0-7,3.8c-0.3,2.7-0.2,6.6,1.4,7.9
				c1.9,1.5,5.9,1.7,8.4,0.8c2.7-0.9,5.3-3.4,7.1-5.8C682.5,590.9,680.6,587.6,676.9,587z"/>
			<path class="st2" d="M491.3,623.1c-5,3.1-9,6.8-10.6,13.5C488.6,635,493.6,628.4,491.3,623.1z"/>
			<path class="st2" d="M602.7,588c-1,1-2.3,1.8-3,3c-3.7,6.7-3.6,14-2.6,21.3c0.2,1.2,1.3,2.3,2.1,3.5c1.2-0.7,3-1.2,3.4-2.2
				c1.9-4.5,3.4-9.1,4.8-12.9c-0.8-4-1.1-6.8-2-9.4C605,590,603.6,589.1,602.7,588z"/>
			<path class="st2" d="M431.1,629.6c-1-0.5-3.1-0.1-4,0.7c-5.9,5-9.1,11.6-10.6,19.6c0.6,1,1.2,2.8,2.2,3.1
				c1.3,0.3,3.4-0.1,4.4-1.1c5.5-4.9,8.2-11.5,9.4-18.6C432.7,632.2,432,630.1,431.1,629.6z"/>
			<path class="st2" d="M341.6,627.3c-2.2,2.3-4.2,4.9-7,8.3c5.6,0.1,8.7-1.6,10.5-5.3c0.4-0.9-0.2-2.4-0.4-3.6
				C343.7,626.9,342.2,626.7,341.6,627.3z"/>
			<path class="st2" d="M281.6,618.5c-2.6,2.1-5,4.5-7.5,6.8c0.3,0.4,0.5,0.9,0.8,1.3c4.1,0.1,7.7-1.1,9.7-5.1
				c0.4-0.8,0.2-2.3-0.3-3.1C284,618.1,282.1,618,281.6,618.5z"/>
			<path class="st2" d="M516,628c7.1-3.1,8.9-7,5.9-11.9C517,618.4,517,623.1,516,628z"/>
			<path class="st2" d="M650.8,558.4c1.1-2,2-3.6,2.8-5.2c1.4,1.2,3.4,2.1,4.2,3.6c1.5,3,2.8,6.4,3.4,9.7c0.3,1.5-1.3,3.4-2.1,5
				c-1.3-0.9-3.1-1.4-3.8-2.7C653.6,565.6,652.4,562.1,650.8,558.4z"/>
			<path class="st2" d="M627.1,583.8c0-4.4-0.2-7.5,0.1-10.6c0.1-0.9,1.7-1.7,2.6-2.5c0.7,0.8,1.8,1.5,2,2.4
				C633.1,577.4,630.8,580.2,627.1,583.8z"/>
		</g>
	</g>
</g>
</svg>
